<svg width="40" height="40" viewBox="0 0 40 40" fill="none" xmlns="http://www.w3.org/2000/svg">
<path d="M36.612 8.87187L36.0135 9.06158L32.8266 9.34551L31.9265 10.783L31.2733 10.5755L28.737 8.28873L28.369 7.09952L27.8763 5.83138L26.2822 4.40153L24.4016 4.03357L24.3583 4.89428L26.2007 6.69209L27.1022 7.75397L26.0887 8.28363L25.2636 8.04045L24.0273 7.52478L24.0693 6.52784L22.4472 5.86066L21.9086 8.20469L20.2738 8.5752L20.4355 9.88282L22.5656 10.2928L22.9336 8.20342L24.6919 8.46316L25.5093 8.9419H26.8208L27.7184 10.7397L30.0981 13.1538L29.9237 14.0921L28.0049 13.8477L24.6894 15.522L22.3021 18.3855L21.9914 19.6536H21.1345L19.5379 18.9177L17.9871 19.6536L18.3729 21.2897L19.0477 20.5118L20.2343 20.4749L20.1516 21.9442L21.1345 22.2319L22.1162 23.3346L23.7192 22.8838L25.5501 23.1729L27.6764 23.7445L28.7383 23.8693L30.5386 25.9129L34.0133 27.9564L31.766 32.2498L29.394 33.3524L28.4938 35.8059L25.0612 38.0977L24.6957 39.4194C33.4709 37.3058 39.9988 29.4232 39.9988 19.9987C39.9962 15.8823 38.7485 12.0511 36.612 8.87187Z" fill="white"/>
<path d="M22.3008 30.4519L20.8442 27.7514L22.1811 24.9656L20.8442 24.5658L19.343 23.0583L16.0173 22.3121L14.9135 20.0025V21.3738H14.4271L11.561 17.4879V14.2958L9.46018 10.8798L6.1243 11.4744H3.87704L2.74641 10.7333L4.18898 9.58997L2.75023 9.92228C1.01608 12.8838 0.00512695 16.3203 0.00512695 20.0012C0.00512695 31.044 8.95725 39.9999 20.0013 39.9999C20.8518 39.9999 21.6858 39.9248 22.5109 39.8255L22.302 37.4025C22.302 37.4025 23.22 33.8044 23.22 33.6821C23.2188 33.5586 22.3008 30.4519 22.3008 30.4519Z" fill="white"/>
<path d="M7.43576 6.44894L10.9881 5.95365L12.6255 5.05602L14.4678 5.58696L17.4116 5.42399L18.42 3.83881L19.8906 4.08072L23.462 3.74586L24.4462 2.66106L25.834 1.73415L27.7974 2.02954L28.5129 1.92131C25.927 0.7041 23.0495 0 20.0001 0C13.793 0 8.24299 2.82913 4.57861 7.27145H4.5888L7.43576 6.44894ZM20.8455 1.9888L22.8878 0.864528L24.1992 1.6221L22.3008 3.06723L20.4877 3.2493L19.6716 2.71963L20.8455 1.9888ZM14.7963 2.15304L15.6978 2.52865L16.8781 2.15304L17.5211 3.26712L14.7963 3.98268L13.4862 3.2162C13.4862 3.2162 14.7671 2.39114 14.7963 2.15304Z" fill="white"/>
</svg>
