
<svg
  width="24"
  height="24"
  viewBox="0 0 24 24"
  fill="none"
  xmlns="http://www.w3.org/2000/svg"
>
  <path
    fill-rule="evenodd"
    clip-rule="evenodd"
    d="M12 2C12.2761 2 12.5261 2.114 12.7071 2.29289L18.7071 8.29289C18.8946 8.48043 19 8.73478 19 9V19C19 20.1046 18.1046 21 17 21H7C5.89543 21 5 20.1046 5 19V9C5 8.73478 5.10536 8.48043 5.29289 8.29289L11.2929 2.29289C11.4739 2.114 11.7239 2 12 2ZM12 4.41421L7 9.41421V19H17V9.41421L12 4.41421ZM10.5 14.5L9 13L8 14L10.5 16.5L16 11L15 10L10.5 14.5Z"
    fill="white"
  />
</svg>
