<svg width="26" height="40" viewBox="0 0 26 40" fill="none" xmlns="http://www.w3.org/2000/svg">
<path d="M7.25 28.5C7.33333 29.1667 7.41667 29.75 7.41667 30.4167H18.5833C18.5833 29.75 18.6667 29.0833 18.75 28.5H7.25Z" fill="white"/>
<path d="M7.4165 32.0834V35C7.4165 35.5 7.74984 35.8334 8.24984 35.8334H8.49984C8.9165 37.9167 10.8332 39.5834 12.9998 39.5834C15.2498 39.5834 17.0832 38 17.4998 35.8334H17.7498C18.2498 35.8334 18.5832 35.5 18.5832 35V32.0834H7.4165Z" fill="white"/>
<path d="M12.3333 0.416654C6.4166 0.749988 1.49993 5.41665 0.833261 11.3333C0.499927 14.6667 1.49993 17.9167 3.58326 20.4167C5.16659 22.3333 6.33326 24.5 6.9166 26.75H19.0833C19.6666 24.5 20.8333 22.25 22.4166 20.3333C24.2499 18.1667 25.2499 15.4167 25.2499 12.5833C25.2499 5.66665 19.3333 0.0833211 12.3333 0.416654Z" fill="white"/>
</svg>
