<svg width="40" height="40" viewBox="0 0 40 40" fill="none" xmlns="http://www.w3.org/2000/svg">
<path d="M16.9137 36.9209C17.0982 37.0736 17.2955 37.2264 17.4927 37.3663C17.5564 37.4109 17.5945 37.4364 17.6009 37.4427C17.6526 37.4805 17.7151 37.5006 17.7791 37.5C17.8301 37.5006 17.8806 37.4887 17.9261 37.4655C17.9715 37.4422 18.0106 37.4081 18.0399 37.3663C18.088 37.2969 18.1069 37.2113 18.0927 37.128C18.0784 37.0448 18.032 36.9704 17.9636 36.9209L17.83 36.8254C17.7281 36.7491 17.5754 36.6409 17.3845 36.4881C16.198 35.5427 15.1987 34.3837 14.4382 33.0709C11.6891 28.3173 12.79 22.0873 17.06 18.25C18.7652 16.7571 20.6771 15.5183 22.7363 14.5718C13.3373 21.7564 14.9536 28.0882 15.03 28.3682C15.0485 28.4401 15.0919 28.5032 15.1525 28.5463C15.213 28.5893 15.2868 28.6097 15.3609 28.6036C21.1136 28.1264 25.3709 25.9691 28.0181 22.1891C33.3445 14.5845 30.2391 2.85 30.2072 2.73544C30.1904 2.66867 30.1519 2.60936 30.0978 2.56676C30.0437 2.52417 29.977 2.50069 29.9082 2.5H29.9018C29.8338 2.50001 29.7677 2.52158 29.7128 2.5616C29.6579 2.60162 29.6171 2.65803 29.5963 2.7227C29.5836 2.77363 27.999 7.73091 21.0054 9.75457C17.2423 10.7937 13.8592 12.8974 11.2627 15.8127C10.7193 16.4428 10.2731 17.1506 9.93905 17.9127C5.87904 27.2036 14.3682 34.8909 16.9137 36.9209Z" fill="white"/>
</svg>
